/* XPM */
static char *alevt[]={
"15 14 8 1",
"f c None",
"a c #000000",
"b c #00ff00",
"d c #00ffff",
". c #c3c3c3",
"c c #ff0000",
"e c #ffff00",
"# c #ffffff",
"...............",
".#############a",
".#bacddddaddd#a",
".#aaaaaaaaaaa#a",
".#aababaeeeaa#a",
".#aababaaeaaa#a",
".#aababaaeaaa#a",
".#aaabaaaeaaa#a",
".#aaaaaaaaaaa#a",
".#ccabbaeeadd#a",
".#############a",
"aaaaaaaaaaaaaaa",
"ffff.#####affff",
"ffaaaaaaaaaaaff"};
