/* XPM */
static char *alevt_big[]={
"32 32 18 1",
". c None",
"b c #000000",
"l c #004000",
"i c #004040",
"j c #008000",
"h c #008080",
"k c #00c000",
"g c #00ff00",
"c c #303030",
"n c #400000",
"d c #404000",
"a c #585858",
"o c #800000",
"# c #808080",
"f c #a0a0a0",
"p c #c00000",
"e c #c3c3c3",
"m c #ffffff",
"...............................#",
".#aaaaaaaaaaaaaaaaaaaaaaaaaaaa##",
".abbbbbbbbbbbbbbbbbbbbbbbbbbbba#",
".ac##########################ca#",
".adeeeeeeeeeeeeeeeeeeee......da#",
".adefdddddcddcdddddddddddddf.da#",
".ade#bbbbbbbbbbbbbbbbbbbbbb#.da#",
".ade#bbbbbbbbbbbbbbbbbbbbbb#.d.#",
".ade#bgggbbgbggbgggbbgggbbb#.da#",
".ade#bbbbbbbbbbbbbbbbbbbbbb#.da#",
".ace#bggghiihjhkbihklhbgbbb#.da#",
".ade#bbbbbbbbbbbbbbbbbbbbbb#.da#",
".ade#bgggbbgggbbbbbbbbbbbbb#.da#",
".acf#bllbbbbbbbcilibcliibbb#.da#",
".acf#bbbbbbbbbbbbbbbbbbbbbb#.da#",
".acf#bjljjjljcjjljjjlbjjjlb#.da#",
".acf#bbbbbbbbbbbbbbbbbbbbbb#.da#",
".acf#bbbbbbbbbbbbbbbbbbbbbb#.da#",
".acf#bjjjjjjjjbjjjjjjjjjbbb#.da#",
".acf#bbbbbbbbbbbbbbbbbbbbbb#.da#",
".acfdbbbbbbbbbbbbbbbbbbbbbb#.da#",
".acf#bbbbbbbbbbbbbbbbbbbbbb#.da#",
".acf#bbbbbbbbbbbbbbbbbbbbbb#.da#",
".acf#bbbbbbbbbbbbbbbbbbbbbb#.da#",
".acf#dddddddddddddddaddaadaf.da#",
".acffeeeeeeeeeeeee...........da#",
".abbbbbbbbbbbbbbbbbbbbbbbbbbbba#",
"mabbbnnnoppppnbbbbbbbbbbmaambba#",
".abbbbbbbbbbbbbbbbbbbbbbbbbbbba#",
".abbbbbbbbbbbbbbbbbbbbbbbbbbbba#",
"...............................#",
"...............................#"};
