/* XPM */
static char *date[]={
"32 32 149 2",
"Qt c None",
".# c #000000",
".X c #090201",
".7 c #110d00",
"#a c #2d2d2d",
"#. c #5a5a5a",
".z c #770010",
"#g c #7c7c7c",
".9 c #808080",
"as c #83120f",
".k c #84130f",
".y c #84140e",
".B c #86170e",
"#0 c #87180e",
".C c #881b0d",
".M c #891c0e",
"#Q c #8a1d0d",
"ar c #8b1e0d",
".Y c #8b1f0e",
".j c #8c210d",
"#8 c #8d8d8d",
"#7 c #8d8d8e",
"ab c #8d8e8d",
"aa c #8d8e8e",
"#M c #8e220d",
"#9 c #8e8d8d",
"ac c #8e8d8e",
"a# c #8e8e8d",
"a. c #8e8e8e",
".D c #8f250d",
".N c #91270c",
"aq c #942c0c",
".p c #942e0c",
".i c #96300c",
".E c #99330b",
".q c #99330c",
".O c #9b370c",
"#Z c #9c380b",
".A c #9d3a0b",
"#R c #9d4239",
".o c #9f3b0b",
"#1 c #9f3d0a",
"#f c #a0a0a0",
".h c #a13f0b",
"ae c #a1400a",
".r c #a2410b",
"#L c #a39f22",
".F c #a4440a",
"#G c #a49f22",
".Z c #a55038",
".P c #a64709",
"ap c #a7480a",
"#e c #a9a523",
".g c #ab4f09",
".s c #ae5309",
".x c #af5508",
"ao c #af5609",
"#2 c #b15708",
".Q c #b15808",
".f c #b45c08",
"ad c #b66008",
"ak c #b76007",
".t c #b86307",
"an c #b86308",
".n c #b96507",
".G c #ba6507",
".R c #bb6707",
"#K c #bbb728",
"af c #bc6907",
"#D c #bcb728",
".e c #be6b07",
"#3 c #bf6d06",
".u c #c06e06",
".w c #c27106",
".H c #c37206",
"## c #c3c3c3",
".S c #c47506",
".v c #c67706",
".V c #c67905",
"#d c #c7c12b",
".d c #c97c05",
"ag c #ca7e05",
"#S c #cb988a",
"am c #cc8205",
".I c #cd8105",
".T c #ce8305",
"#4 c #ce8404",
".K c #d08704",
".0 c #d0a089",
"#C c #d3cd2e",
"#y c #d3ce2e",
"#J c #d4ce2e",
".c c #d58e03",
".J c #d79003",
"#6 c #d79104",
".5 c #d79b30",
".U c #d89303",
"ah c #d99503",
".6 c #db9703",
"#5 c #dc9903",
".L c #ddac2f",
"#N c #dfc1bd",
".b c #e09f03",
"al c #e1a202",
"#P c #e2a202",
".4 c #e4bd87",
"ai c #e5a601",
"#W c #e5af2f",
"aj c #e7a901",
".m c #e8ab01",
"#c c #e8e233",
".a c #e9ac01",
"#V c #e9c586",
".W c #ebae00",
"#X c #ebb001",
"#T c #ecd9cd",
".1 c #eddacd",
"#r c #eee735",
"#t c #eee835",
"#Y c #f0b700",
".l c #f1b900",
".3 c #f1e0cc",
"#O c #f3e0ba",
"#U c #f3e2cc",
"#b c #fcf538",
".2 c #fdfbf8",
"#i c #ff0000",
"#m c #ff0303",
"#s c #ff0707",
"#H c #ff0b0b",
"#v c #ff1313",
"#w c #ff1d1d",
"#z c #ff4949",
"#E c #ff4a4a",
"#h c #ff5b5b",
"#l c #ff5c5c",
"#n c #ff5e5e",
"#q c #ff6060",
"#B c #ff6767",
"#p c #ff7575",
"#o c #ff9393",
"#k c #ffa5a5",
"#x c #ffa6a6",
"#A c #ffaeae",
"#F c #ffbdbd",
"#j c #ffbfbf",
"#I c #ffc3c3",
"#u c #fff1f1",
".8 c #ffffff",
"QtQtQtQtQtQtQtQtQtQtQtQtQtQtQtQtQtQt.#.#.#.#.#.#.#.#.#.#.#QtQtQt",
"QtQtQtQtQtQtQtQtQtQtQtQtQtQtQtQt.#.#.a.b.c.d.e.f.g.h.i.j.k.#.#Qt",
"QtQtQtQtQtQtQtQtQtQtQtQtQtQtQt.#.l.m.n.o.p.q.r.s.t.u.v.w.x.y.z.#",
"QtQtQtQtQtQtQtQtQtQtQtQtQtQtQt.#.l.A.B.C.D.E.F.x.G.H.I.J.b.K.z.#",
"QtQtQtQtQtQtQtQtQtQtQtQtQtQtQtQt.#.y.L.M.N.O.P.Q.R.S.T.U.V.W.#Qt",
"QtQtQtQtQtQtQtQtQtQtQtQtQtQtQtQtQt.X.L.Y.Z.0.1.2.3.4.5.6.V.7QtQt",
"QtQtQtQtQtQtQtQtQtQtQtQtQtQtQtQtQt.#.L.#.8.8.8.8.8.8.8.#.V.#QtQt",
"QtQtQtQtQtQtQtQtQtQtQtQtQtQtQtQtQt.#.L.#.8.8.8.8.8.8.8.#.V.#QtQt",
"QtQtQtQtQtQtQtQtQtQtQt.#.#.#.#QtQt.#.L.#.8.8.8.8.8.8.8.#.V.#QtQt",
"QtQtQtQtQtQtQt.#.#.#.#.9.9.9.9.#Qt.#.L.#.8.8.8.8.8.8.8.#.V.#QtQt",
"QtQtQtQt.#.#.#.9.9.9.9.9.9.9.9.9.#.#.L.#.8.8.8.8.8.8.8.#.V.#QtQt",
"QtQtQt.#.9.9.9.9.9.9.9.9.9.9.9.9#..#.L.#.8.8.8.8.8.8.8.#.V.#QtQt",
"QtQtQt.#.9.9.9.9.9##Qt.8.8.8.8.9#..#.L.##a#b#b#c#d#e#a.#.V.#QtQt",
"QtQtQt.#.9##Qt.8.8.8.8.8.8.8.8#f#..#.L.#.##b#b#c#d.8.#.#.V.#QtQt",
"QtQtQt.#.8.8.8.8.8.8.8.8.8.8.8#f#g.#.L.#Qt.##b#c.8.#Qt.#.V.#QtQt",
"QtQtQt.#.8.8.8#h#i#i#i#j.8.8.8#f#g.#.L.#QtQt.#.8.#QtQt.#.V.#QtQt",
"QtQtQt.#.8.8#i#i#k#l#i#m.8.8.8#f#g.#.L.#QtQt.#.8.#QtQt.#.V.#QtQt",
"QtQt.#.8.8.8#n#o.8#p#i#q.8.8.8#f#g.#.L.#Qt.#.8#r.8.#Qt.#.V.#QtQt",
"QtQt.#.8.8.8.8.8#i#i#s.8.8.8.8#f#g.#.L.#.#.8.8#t.8.8.#.#.V.#QtQt",
"QtQt.#.8.8.8.8#u#v#i#i#w.8.8.8#f#g.#.L.#.#.8.8#t.8.8.#.#.V.#QtQt",
"QtQt.#.8.8.8.8.8.8#x#i#i.8.8.8#f#g.#.L.#.8.8#b#t#y.8.8.#.V.#QtQt",
"QtQt.#.8.8#z#i#A.8#B#i#i.8.8.8#f#g.#.L.#.8#b#b#t#C#D.8.#.V.#QtQt",
"QtQt.#.8.8#i#i#m#E#i#i#F.8.8.8#f#g.#.L.##b#b#b#t#y#D#G.#.V.#QtQt",
"Qt.#.8.8.8.8#H#i#i#i#I.8.8.8.8#f#g.#.L.##b#b#b#t#J#K#L.#.V.#QtQt",
"Qt.#.8.8.8.8.8.8.8.8.8.8.8.8.8#f#g.#.L.##b#b#b#t#C#D#L.#.V.#QtQt",
"Qt.#.8.8.8.8.8.8.8.8.8.8.8.8.8#f#g.#.L.##b#b#b#t#C#K.8.#.V.#QtQt",
"Qt.#.8.8.8.8.8.8.8.8.8.8.8.8.8#f#g.X.L#M#N#b#b#t#J.8#O#P.V.7QtQt",
"Qt.#.8.8.8.8.8.8.8.8.8.8.8.8.8#f#g#Q.L.B#R#S#T.2#U#V#W#X.V#Y.#Qt",
"Qt.############################f#g#Z.B#0.N#1#2#3#4#5.a#Y#Y#6.z.#",
"QtQt.##7#8#8#8#9a.a##9aaab#9#8ac#g#Padaeae.xafagahaiaj.Jak.y.z.#",
"QtQtQt.#.#.#.#.#.#.#.#.#.#.#.#.#.#.#al.Uam.Hanaoap.Aaqaras.#.#Qt",
"QtQtQtQtQtQtQtQtQtQtQtQtQtQtQtQtQtQt.#.#.#.#.#.#.#.#.#.#.#QtQtQt"};
