/* XPM */
static char *gear[]={
"32 32 223 2",
"Qt c None",
"br c #0b0824",
"#S c #0f0b2e",
"bq c #100c30",
"#G c #1e194a",
"bh c #1f1a4c",
"#X c #211b4e",
"bs c #221c4e",
"bg c #231e51",
"bd c #332d60",
"#3 c #3a3364",
"#W c #3b3567",
"bx c #433d6b",
"a# c #433d6c",
"bi c #47416d",
"#. c #481800",
"ab c #504a72",
"aG c #504a75",
"#7 c #544e76",
"#Y c #564f78",
"aQ c #565177",
"## c #5f2700",
"bl c #5f577d",
"aY c #5f597c",
".A c #622e27",
"bf c #62597e",
".8 c #686080",
"bw c #6a6482",
"bA c #6a6782",
"aV c #6d6784",
"aJ c #6f6884",
"az c #726c86",
"af c #746d86",
"am c #746d87",
"#6 c #756f88",
"#4 c #757289",
"a5 c #777189",
"#5 c #797289",
"#1 c #797489",
"a4 c #7a7489",
"bp c #7a748a",
"bk c #7a7a8c",
"#r c #7c7689",
"aj c #7c768a",
"bm c #7e768b",
"ag c #7e778c",
"a0 c #7e778d",
"a6 c #7f798c",
"ba c #81778d",
"#R c #817a8c",
"a3 c #817a8d",
"bt c #827c8e",
".7 c #847e8f",
".9 c #874700",
"aa c #878491",
"aU c #898390",
"ah c #898391",
"#F c #898392",
"#Q c #898492",
"a2 c #8b8491",
"#0 c #8b8492",
"aX c #8c8692",
"bB c #8c8694",
".T c #8c8893",
".n c #915200",
"#Z c #918694",
"au c #918b95",
"aF c #918b97",
"an c #958e97",
"bb c #958e98",
"av c #968e97",
"#E c #969098",
"be c #989198",
"#P c #999098",
".I c #9c6847",
".x c #9d6515",
"a. c #9d959c",
"a1 c #9d969c",
"#d c #a09a9c",
"ai c #a29a9f",
"aM c #a29b9d",
"bC c #a29b9f",
"aP c #a29e9f",
".r c #a36c00",
"aw c #a39e9f",
"bu c #a59d9e",
"aE c #a59e9e",
"ao c #a59e9f",
"aO c #a5a09f",
"aW c #a69e9f",
"#O c #a69ea1",
"#D c #a6a09f",
"aD c #a6a0a0",
".U c #a7721f",
".P c #a77a6d",
".q c #a86f00",
".X c #a87408",
".e c #a8804f",
"aL c #a8a1a1",
"a7 c #a9a3a2",
".t c #aa7400",
"a9 c #aba5a2",
"bv c #aba9a5",
".d c #b08d64",
"#g c #b0a9a4",
"by c #b0a9a5",
".W c #b17f00",
"#a c #b18214",
"ay c #b1aba6",
"bj c #b3aca7",
".V c #b48301",
"ax c #b4aca7",
"#f c #b4aea6",
"at c #b4aea7",
"#C c #b4aea9",
"aN c #b4afa9",
"#N c #b6afa9",
"aI c #b7b1a8",
"#n c #b7b4ab",
"ap c #b9b1aa",
"ac c #b9b2a9",
"a8 c #bab2ad",
"aA c #bab4ab",
".u c #bc951e",
"al c #bdb6ad",
"aq c #bfb8af",
".L c #c09e44",
"bz c #c0b9af",
".D c #c1a03d",
".k c #c1a163",
"aT c #c3bcb1",
"b. c #c3bfb1",
".M c #c4a021",
"#M c #c4bdb1",
".Y c #c5a131",
".m c #c5a32c",
".f c #c6a72a",
"#B c #c6bfb2",
"#o c #c7c0b2",
".C c #cbb37d",
".E c #ccb04a",
".y c #ceb343",
"bn c #cec7b7",
"#c c #cfb651",
".1 c #cfb988",
"#L c #cfc8b7",
".z c #d0b653",
".j c #d0bd85",
"aH c #d0c9b9",
"aZ c #d0c9ba",
"#s c #d1b65c",
".l c #d1ba55",
"b# c #d3c8ba",
"#A c #d3cbbb",
"#b c #d6c358",
".w c #d6c897",
"#q c #d6d1bf",
".0 c #d9c776",
".F c #d9c983",
".h c #d9ceca",
"#T c #d9d1bf",
".K c #dad2c0",
"aS c #dcd4c3",
"#z c #dcd4c4",
"as c #dcd4c5",
".G c #ddce75",
"#m c #ddd5c4",
".g c #ddd5d0",
"#l c #ded4c5",
"ae c #ded5c4",
"aC c #ded6c5",
"aR c #e0d8c6",
"#p c #e1d9c7",
"aB c #e2dacc",
".Q c #e3dbc9",
"#K c #e3dbca",
"ak c #e4dcca",
"aK c #e4dcce",
".Z c #e5d66a",
"#e c #e5ddcb",
"#k c #e5ddcc",
"#y c #e5ddce",
".2 c #e6e1b9",
"#V c #e7dece",
"#2 c #e7dfcd",
"bo c #e9dfd0",
"#h c #eae3d1",
"bc c #ebe3d4",
"#9 c #ebe4d4",
".5 c #ece4d5",
"#x c #ece5d5",
"#j c #ece5d6",
".O c #ede595",
".H c #eee57a",
"#H c #eee7d7",
".6 c #eee7d8",
".a c #eeebe6",
".v c #f0eeea",
".4 c #f1ebdf",
"#i c #f1ebe0",
"#U c #f1ecdf",
"#w c #f2ebdf",
"ad c #f2ebe1",
".c c #f2ecae",
"#J c #f2ecdf",
"ar c #f4efe5",
".# c #f5f3f0",
"#v c #f6f2e8",
"#I c #f6f2ea",
".S c #f7f3eb",
".N c #f7f687",
"#u c #fbf8f3",
".J c #fbf9f4",
".R c #fbf9f6",
".i c #fcf9d7",
".p c #fcfad1",
".s c #fcfbdd",
"#t c #fefdfb",
".o c #fefefe",
".B c #fffdcc",
"#8 c #fffefe",
".b c #ffffe3",
".3 c #ffffff",
"QtQtQtQtQtQtQtQtQtQtQtQtQtQtQtQtQtQtQtQtQtQtQtQtQtQtQtQtQtQtQtQt",
"QtQtQtQtQtQtQtQtQtQtQtQtQtQtQtQtQtQtQtQtQtQtQtQt.#QtQtQtQtQtQtQt",
"QtQtQtQtQtQtQtQtQtQtQtQtQtQtQtQtQtQtQtQtQtQtQt.a.b.c.d.e.fQtQtQt",
"QtQtQtQtQtQtQtQtQtQtQtQtQtQtQtQtQtQtQtQt.g.h.a.i.j.k.l.m.nQtQtQt",
"QtQtQtQtQtQtQtQtQtQtQtQtQtQtQtQtQtQtQtQtQt.o.pQtQtQtQt.q.rQtQtQt",
"QtQtQtQtQtQtQtQtQtQtQtQtQtQtQtQtQtQtQtQtQt.sQtQtQtQtQtQt.t.uQtQt",
"QtQtQtQtQtQtQtQtQtQtQtQtQtQtQtQtQtQtQtQt.v.wQtQtQtQtQtQt.x.y.z.A",
"QtQtQtQtQtQtQtQtQtQtQtQtQtQtQtQtQtQtQt.v.B.CQtQtQtQtQtQt.D.EQtQt",
"QtQtQtQtQtQtQtQtQtQtQtQtQtQtQtQtQtQtQtQt.F.GQtQtQtQtQtQt.H.IQtQt",
"QtQtQtQtQtQtQtQtQtQtQt.J.KQtQtQtQtQtQtQtQt.L.MQtQtQtQt.N.O.PQtQt",
"QtQtQtQtQtQtQtQtQtQt.Q.R.S.TQtQtQtQtQtQtQt.U.V.W.X.Y.Z.0.1.2QtQt",
"QtQtQtQtQtQtQtQtQt.Q.3.4.5.6.7QtQtQtQt.8Qt.9#.###a#b#cQtQtQtQtQt",
"QtQtQt#d.J#e#f#g#h.3#i#j#k#l#m#n#o#p#q#rQtQtQtQtQt#sQtQtQtQtQtQt",
"QtQtQtQt#t.3.o#u#v#w#x#y#z#A#B#C#D#E#F#GQtQtQtQtQtQtQtQtQtQtQtQt",
"QtQtQtQt#H.o#u#I#J#j#K#L#B#M#N#O#P#Q#R#SQtQtQtQtQtQtQtQtQtQtQtQt",
"QtQtQtQt#T#u#I#U#V#E#WQtQt#X#Y#Z#0#R#1#GQtQtQtQtQtQtQtQtQtQtQtQt",
"QtQtQtQt#H#I#U#2#EQtQtQtQtQtQt#3#4#5#6#7QtQtQtQtQtQtQtQtQtQtQtQt",
"QtQtQtQt#8#U#9a.QtQtQtQtQtQtQtQta##6#5aaabQtQtQtQtQtQtQtQtQtQtQt",
"QtQtac#8ad#xaeQtQtQtQtQtQtQtQtQtQtafagahaiajQtQtQtQtQtQtQtQtQtQt",
"Qtak.3#w#x#kalQtQtQtQtQtQtQtQtQtQtamahanaoapaqQtQtQtQtQtQtQtQtQt",
"Qtar#U#j#kasatQtQtQtQtQtQtQtQtQtQtauavawaxayazQtQtQtQtQtQtQtQtQt",
"QtQtaAaBaC#A#MQtQtQtQtQtQtQtQtQtQtaDaE#faFaGQtQtQtQtQtQtQtQtQtQt",
"QtQtQt#daH#BaIaJQtQtQtQtQtQtQtQtaKaLatayaGQtQtQtQtQtQtQtQtQtQtQt",
"QtQtQtQtaMaNaOaPaQQtQtQtQtQtQtaRaSataTaUQtQtQtQtQtQtQtQtQtQtQtQt",
"QtQtQtQtaVaW#E#0aXaYQtQtQtQtaR.Q#faTaZa0QtQtQtQtQtQtQtQtQtQtQtQt",
"QtQtQtQta1#Ea2a3a4a5a6.7a7a8a9atb.aZ#z#fQtQtQtQtQtQtQtQtQtQtQtQt",
"QtQtQtQtb##0ba#5#6#5agahbbao#faT#A#z#ebcQtQtQtQtQtQtQtQtQtQtQtQt",
"QtQtQtbdbebfbgbhbia5ahbbaobj#CbkblbmbnbobpQtQtQtQtQtQtQtQtQtQtQt",
"QtQtQtQtbqbrQtQtQtbsbtbuaxbvbwQtQtQtQtQtQtQtQtQtQtQtQtQtQtQtQtQt",
"QtQtQtQtQtQtQtQtQtQtbxbybzbAQtQtQtQtQtQtQtQtQtQtQtQtQtQtQtQtQtQt",
"QtQtQtQtQtQtQtQtQtQtQtbBbCQtQtQtQtQtQtQtQtQtQtQtQtQtQtQtQtQtQtQt",
"QtQtQtQtQtQtQtQtQtQtQtQtQtQtQtQtQtQtQtQtQtQtQtQtQtQtQtQtQtQtQtQt"};
