/* XPM */
static char *light[]={
"32 32 186 2",
"Qt c None",
"aS c #000000",
".# c #020204",
"aJ c #0abe14",
"al c #0ac60c",
"aB c #0ede14",
"aA c #12e21c",
"az c #12ea14",
"aK c #1a9e1c",
"aq c #1af61c",
"as c #1efa24",
"ay c #26d624",
"ar c #26f62c",
"am c #2a762c",
"aC c #2a9a2c",
"ak c #2aba2c",
"at c #2e9a34",
".o c #363634",
".j c #3e3e3c",
"aY c #424644",
"#d c #524e4c",
".I c #525254",
"a2 c #535353",
".x c #565654",
".8 c #5a5a5c",
"aL c #5a725c",
"aR c #5d5d5d",
"#h c #622a2c",
"#V c #665a5c",
".w c #666663",
".Q c #666664",
"a3 c #66666c",
"aP c #666e64",
"aj c #668264",
"aM c #696969",
"aa c #6a6a64",
"au c #6d6d6d",
"#s c #6e3234",
".v c #6e6e6c",
"aZ c #6e726b",
"aI c #6e8e6c",
"aD c #6f6f6f",
"aQ c #717171",
"#e c #725a5c",
".Z c #727274",
".n c #737372",
"aX c #757575",
".E c #767674",
"aT c #767973",
"ag c #777777",
"#L c #7a5a5c",
"#W c #7a6e6c",
"av c #7a7a7c",
".u c #7b7b7a",
"aU c #7c7c7c",
"a1 c #7d7d7d",
"#f c #7e262c",
"an c #7e7e7c",
"aO c #7e817b",
"aV c #7f7f7f",
".m c #818180",
"aW c #818181",
"#g c #820e14",
".h c #828284",
".D c #838383",
"#K c #862224",
"ab c #868687",
"aF c #868984",
"#5 c #878789",
".t c #898988",
"a0 c #898989",
"#J c #8a1e1c",
".0 c #8a8a8c",
"#. c #8a8e8c",
"aH c #8b8b8b",
"ax c #8d8d8d",
"#X c #8d8d8e",
".a c #8e8e8c",
"aw c #8e908c",
".C c #919191",
".9 c #929294",
"#4 c #939393",
"#N c #939394",
"ap c #959595",
"#B c #961e2c",
"#C c #96222c",
"#U c #968e8c",
".s c #969696",
"ao c #969894",
".N c #999999",
"#w c #9a9a9c",
"#2 c #9b9b9b",
"#q c #9e1624",
"#A c #9e3e44",
"#F c #9e9e9c",
".B c #9e9e9f",
"ah c #9ea09c",
"#i c #9f9f9f",
"#j c #a3a3a3",
".r c #a4a4a4",
".W c #a5a5a5",
"#r c #a61e2c",
"aE c #a6a6a4",
".M c #a6a6a7",
"af c #a6a8a4",
"a. c #a7a7a7",
"#1 c #a9a9a9",
"## c #aaaaa9",
".d c #aaaaac",
"a# c #ababab",
"ai c #acacac",
".A c #acacad",
"#M c #adadad",
"#I c #ae9294",
"aN c #aeaeac",
"#9 c #aeafac",
".3 c #afafae",
"#3 c #afafaf",
".K c #b2b2b4",
".V c #b3b3b3",
".L c #b4b4b5",
".X c #b5b5b4",
".P c #b5b5b5",
".b c #b6b6b4",
"aG c #b6b6bc",
"#0 c #b6b7b4",
".k c #b7b7b6",
"#S c #b7b7b7",
".z c #b9b9bb",
"ac c #b9b9bc",
".i c #bababc",
"#T c #bbbbbb",
"#R c #bcbcbc",
".R c #bcbcbe",
".U c #bdbdbd",
".S c #bebebc",
"#Q c #bebfbc",
"#H c #bfbfbf",
"ad c #bfbfc0",
"#6 c #c1c1c3",
".y c #c1c1c4",
".H c #c2c2c4",
"ae c #c4c4c5",
".g c #c6c6c4",
".l c #c6c6cc",
"#G c #c6c7c4",
"#7 c #c7c7c8",
"#y c #c9c9c9",
"#Y c #c9c9ca",
".T c #cacacc",
".O c #cbcbcb",
"#z c #cccccc",
"#8 c #cccccd",
"#p c #cdcdcd",
"#x c #cececc",
"#Z c #cececf",
"#O c #d1d1d2",
".p c #d2d2d4",
".7 c #d3d3d3",
"#c c #d4d4d4",
".2 c #d5d5d5",
"#n c #d6d6d4",
"#P c #d6d6d7",
"#D c #d9d9d9",
".c c #dadadc",
".Y c #dbdbdb",
".J c #dededc",
"#E c #dedede",
"#t c #e1e1e0",
".5 c #e2e2e4",
".1 c #e3e3e3",
".G c #e6e6e4",
"#u c #e6e6e5",
"#k c #e9e9e8",
"#o c #eaeaec",
"#v c #ebebea",
".q c #eeeeec",
"#l c #eeeeed",
"#a c #f0f0ef",
".6 c #f2f2ec",
"#m c #f3f3f2",
".F c #f6f6f4",
".4 c #f8f8f7",
".e c #fafafc",
"#b c #fbfbf9",
".f c #fefefc",
"QtQtQtQtQtQtQtQtQtQtQtQtQtQtQtQt.#.#.#QtQtQtQtQtQtQtQtQtQtQtQtQt",
"QtQtQtQtQtQtQtQtQtQtQtQtQtQt.#.#.a.b.c.#.#QtQtQtQtQtQtQtQtQtQtQt",
"QtQtQtQtQtQtQtQtQtQtQt.#.#.#.d.e.#.#.#.b.c.#.#QtQtQtQtQtQtQtQtQt",
"QtQtQtQtQtQtQtQtQtQtQt.#.f.g.#.#.h.i.e.#.#.b.c.#.#QtQtQtQtQtQtQt",
"QtQtQtQtQtQtQtQtQtQtQt.#.f.f.f.f.#.#.h.i.e.#.#.b.c.#.#QtQtQtQtQt",
"QtQtQtQtQtQtQtQtQt.#.#.j.k.f.f.f.f.l.#.#.h.i.e.#.#.b.c.#.#QtQtQt",
"QtQtQtQtQtQtQt.#.#.m.n.#.#.k.k.f.f.f.f.#.o.a.p.p.e.#.#.c.q.#QtQt",
"QtQtQtQtQt.#.#.r.s.t.u.v.w.#.#.k.f.f.f.#.i.x.d.p.p.q.e.#.d.e.#Qt",
"QtQtQt.#.#.y.z.A.B.C.D.E.F.F.#.k.f.f.f.#.G.H.I.d.J.G.F.#.K.F.#Qt",
"Qt.#.#.y.y.y.y.L.M.N.F.F.O.P.#.k.f.f.f.#.F.G.H.Q.d.c.G.#.K.G.#Qt",
"Qt.#.F.y.y.y.y.R.F.F.S.P.P.P.#.k.f.f.f.#.#.#.#.#.#.d.q.#.K.q.#Qt",
"Qt.#.G.F.F.y.F.F.T.U.V.P.V.W.#.X.f.f.f.F.S.H.S.i.#.d.G.#.d.G.#Qt",
"Qt.#.G.G.G.F.c.Y.T.Z.0.V.1.2.#.3.4.f.f.f.f.f.f.f.#.d.5.#.d.5.#Qt",
"Qt.#.G.G.G.6.2.7.8.h.9#..j.N.####a.F#b.f.f.f.f.f.#.K.5.#.K.5.#Qt",
"Qt.#.J.J.J.q.7#c#d#e#f#g#h#i.##j#k#l#m.4.f.f.f.f.#.d.c.#.d.c.#Qt",
"Qt.##n#n#n#o.O#p.j#q#r#r#s.r.##i#t#u#v#a.F#b.f.f.##w.c.##w.c.#Qt",
"Qt.##x#x#x.5#y#z#A#B#C#C#s.r.#.N#D#E.1#k#l#m.4.f.##F.p.##F.p.#Qt",
"Qt.##G#G#G.J#H#y#I#J#J#K#L#M.##N#O#PQt#t#u#v#a.F.#.9.p.#.9.p.#Qt",
"Qt.##Q#Q#Q#n#R#S#T#U#V#W.r#i.##X#Y#Z#c#D#E.1#k#l.#.9.T.#.9.T.#Qt",
"Qt.##0#0#0.p.P.V.V#1#2#i#3#4.##5#6#7#8#O#PQt#t#u.#.0.T.#.0.T.#Qt",
"Qt.##9#9#9.Ta..Va#aa.0.K.5#n.#abacadae#Y#Z#c#D#E.#.0.H.#.0.H.#Qt",
"Qt.#afafaf.g#ia#.8.h.9#..jag.#abacac.R#6#7#8#O#P.#.h.S.#.h.S.#Qt",
"Qt.#ahahah.H#iai#dajakalamag.#abacacacacadae#Y#Z.#an.i.#an.i.#Qt",
"Qt.#aoaoao.iap#j.jaqarasatau.#abacacacacac.R#6#7.#av.b.#av.b.#Qt",
"Qt.#awawaw.Sax.NayazaAaBaCaD.#abacacacacacacacad.#.ZaE.#.ZaE.#Qt",
"Qt.#aFaFaFaGaHaxaIalaJaKaLaM.#.#.#acacacacacacac.#.vaN.#.Q.d.#Qt",
"Qt.#aOaOaO.S#4aHax.EaPaPaQaR.#QtQt.#.#acacacacac.#.Q.d.#aS#w.#Qt",
"Qt.#aTaTaT.K#4aUaVaWaWaXaY.#.#QtQtQtQt.#.#acacac.#aS#w.#Qt.#.#Qt",
"Qt.#aZaZaZaNa0aga1aMa2.#.#QtQtQtQtQtQtQtQt.#.#ac.#Qt.#.#QtQtQtQt",
"Qt.#.#aZaZaNaVag.j.#.#QtQtQtQtQtQtQtQtQtQtQtQt.#.#QtQtQtQtQtQtQt",
"QtQtQt.#.#aNa3.#.#QtQtQtQtQtQtQtQtQtQtQtQtQtQtQtQtQtQtQtQtQtQtQt",
"QtQtQtQtQt.#.#QtQtQtQtQtQtQtQtQtQtQtQtQtQtQtQtQtQtQtQtQtQtQtQtQt"};
