/* XPM */
static char *monitor[]={
"32 32 190 2",
"Qt c None",
".# c #000000",
"a5 c #009000",
"ad c #00c000",
"#5 c #00ff00",
".Y c #0a2a4c",
"aX c #0d25ac",
"aP c #0e26ac",
"aJ c #122aaf",
"aW c #142cb1",
"ax c #152eb2",
"aV c #162fb3",
"ap c #1831b4",
"ah c #1b34b6",
"aI c #1c36b8",
"a. c #1d37b8",
"#Z c #1f39ba",
"aH c #1f3aba",
"aw c #213bbb",
"av c #243ebe",
"#Y c #243fbe",
"aG c #2641bf",
"aF c #2742c0",
"af c #2843c1",
"#X c #2944c2",
"#Q c #2b46c4",
"#8 c #2b47c4",
"ae c #2c48c5",
"#W c #2e4ac6",
"#7 c #2f4bc8",
"#P c #304cc8",
"ao c #314dc9",
"#V c #334fca",
"#O c #3552cc",
"#J c #3653cd",
"#U c #3754ce",
"a6 c #38fb30",
"#N c #3a57d0",
"#T c #3b58d1",
"#I c #3c59d1",
"#M c #3e5cd4",
"#H c #415fd6",
"#E c #4260d6",
"#l c #4261d7",
"#m c #4664da",
"a2 c #474747",
"#C c #4766db",
"a0 c #494949",
"#w c #4a69dd",
"#x c #4c6cdf",
"aY c #4e4e4e",
"#D c #5272e4",
"aS c #535353",
"a7 c #565254",
"aL c #585858",
"a1 c #5a5a5a",
"ay c #5d5d5d",
"aZ c #5f5f5f",
"aO c #626262",
"aq c #636363",
"aE c #646464",
"aN c #656565",
"aT c #666666",
"aj c #686868",
"aD c #696969",
"a4 c #6a6a6a",
"au c #6b6b6b",
"aC c #6c6c6c",
"aa c #6d6d6d",
"at c #6f6f6f",
"aB c #707070",
"aM c #717171",
"#1 c #727272",
".k c #737373",
"aA c #747474",
"aR c #757575",
"#v c #767676",
"as c #777777",
"az c #787878",
"ac c #797979",
"an c #7a7a7a",
"ar c #7b7b7b",
"aK c #7c7c7c",
"#k c #7d7d7d",
"am c #7e7e7e",
"ak c #7f7f7f",
"#4 c #808080",
"#h c #818181",
"al c #828282",
"#j c #838383",
"#. c #848484",
"ab c #858585",
"#g c #868686",
"#R c #878787",
"#3 c #888888",
"#i c #898989",
"ai c #8a8a8a",
".9 c #8b8b8b",
"#2 c #8c8c8c",
"a# c #8d8d8d",
".6 c #8e8e8e",
"#t c #8f8f8f",
"#f c #909090",
".8 c #919191",
".X c #929292",
".5 c #939393",
"#s c #949494",
"#e c #959595",
"#L c #969696",
".7 c #979797",
"#B c #989898",
".W c #999999",
"#r c #9a9a9a",
".T c #9b9b9b",
".4 c #9c9c9c",
"#G c #9d9d9d",
"#A c #9e9e9e",
".V c #9f9f9f",
"#d c #a0a0a0",
"#0 c #a0a0a4",
".O c #a1a1a1",
".3 c #a2a2a2",
"#z c #a3a3a3",
"#q c #a5a5a5",
".U c #a6a6a6",
".N c #a7a7a7",
".K c #a8a8a8",
".S c #a9a9a9",
"#p c #aaaaaa",
"#c c #acacac",
".J c #adadad",
".M c #aeaeae",
".A c #afafaf",
"#o c #b0b0b0",
"#b c #b1b1b1",
".2 c #b2b2b2",
".L c #b4b4b4",
".y c #b5b5b5",
"#a c #b7b7b7",
".1 c #b8b8b8",
".R c #b9b9b9",
".l c #bbbbbb",
".z c #bcbcbc",
".p c #bebebe",
".Q c #bfbfbf",
"#S c #c0c000",
".I c #c0c0c0",
"aQ c #c1c1c1",
".x c #c2c2c2",
".0 c #c3c3c3",
".o c #c4c4c4",
"#u c #c5c5c5",
".H c #c6c6c6",
".w c #c7c7c7",
"aU c #c8c8c8",
".Z c #c9c9c9",
".n c #cacaca",
".G c #cbcbcb",
"#K c #cccccc",
".v c #cdcdcd",
".j c #cecece",
".m c #cfcfcf",
"#F c #d0d0d0",
".F c #d1d1d1",
".u c #d2d2d2",
"#y c #d3d3d3",
".i c #d4d4d4",
".P c #d5d5d5",
".E c #d6d6d6",
"#n c #d7d7d7",
".t c #d8d8d8",
".h c #d9d9d9",
"## c #dadada",
"a3 c #dadadc",
".c c #dbdbdb",
".s c #dddddd",
".g c #dfdfdf",
".b c #e0e0e0",
".D c #e1e1e1",
".r c #e3e3e3",
".f c #e4e4e4",
".a c #e6e6e6",
".C c #e7e7e7",
".q c #e8e8e8",
".e c #eaeaea",
".d c #ededed",
"#9 c #ff0000",
"ag c #ffa858",
"#6 c #ffff00",
".B c #ffffff",
"QtQtQtQtQtQt.#.#.#QtQtQtQtQtQtQtQtQtQtQtQtQtQtQtQtQtQtQtQtQtQtQt",
"QtQtQtQt.#.#.a.b.c.#.#.#.#.#.#.#.#.#.#QtQtQtQtQtQtQtQtQtQtQtQtQt",
"QtQt.#.#.d.e.f.g.h.i.j.k.k.l.l.m.n.o.p.#.#QtQtQtQtQtQtQtQtQtQtQt",
"Qt.#.d.d.d.q.r.s.t.u.v.w.x.k.k.l.y.x.z.y.A.#.#QtQtQtQtQtQtQtQtQt",
".#Qt.B.B.d.C.DQt.E.F.G.H.I.l.y.k.k.J.K.L.M.N.O.#.#QtQtQtQtQtQtQt",
".#QtQtQt.B.B.b.c.P.m.n.o.Q.R.L.M.S.k.k.O.T.U.V.W.X.#.#QtQtQtQtQt",
".#Qt.YQtQt.c.B.B.i.j.Z.0.p.1.2.J.N.3.4.k.k.5.6.7.8.9#..#.#QtQtQt",
".#Qt.Y.Y.Y##.h.t.B.B.w.x.z#a#b#c.U#d.T#e#f.k.k#g#h#i#j#k#k.#.#Qt",
".#Qt.Y#l#m.Y.Y#n.E.P.B.B.l.y#o#p#q.V#r#s#t#t#u#v.y.y.y.y.y.y.y.#",
".#.c.Y#m#w#x#w.Y.Y.i#y.u.B.B.M.S#z#A#B.5#u#u.3#v#e.3.3.3.3#d.4.#",
".###.Y#C#x#D#x#C#E.Y.Y.F#F.m.B.B.3.4#u#u.3.3.O#v#e.3.3.O#G.W#e.#",
".#.t.Y#m#w#x#w#m#H#I#J.Y.Y.j.v#K.B#u.3.3#d#A.T#v#e.3#A#r#L.X.6.#",
".##n.Y#l#m#C#m#l#M#N#O#P#Q.Y.Y.n.n.3.V#G.T.W#L#v.5.T.7.5#t.9#R.#",
".#.E.Y#M#S#S#H#M#T#U#V#W#X#Y#Z#0.Z#G.T.W#L#s.X#1#2#s#f#2#3#.#4.#",
".#.P.Y#N#5#5#I#N#6#6#7#8#9#9a..B.w#B#L#s.X#ta#aa#ga##iab#h#kac.#",
".#.i.Y#Oadad#J#O#S#Saeafagagah.B.H.5.8#ta#ai#3ajak#galaman#v#1.#",
".#.u.Y#Padadao#P#5#5af#Y#6#6ap.B#u.6#2ai#3ab#jaqacakaras.katau.#",
".#.F#0.Baeaeae#Qadadavaw#S#Sax.B.o#i#Rab#j#hamay#1azaAaBaCaDaE.#",
".##F.m.j.B.BaFaGadadaHaI#5#5aJ.B.0ab#j#hamaKanaLaCaMaaaDaNaOaO.#",
".#.#.j.v#K.G.B.B#Za.ahapadadaP.BaQ#4amaracasaRaSaNauaTaOaOaOaO.#",
"QtQt.#.#.G.n.ZaU.B.BaVaWadadaX.B.Iarac#vaA#1aBaYaZaqaOaOaOaO.#Qt",
"QtQtQtQt.#.#aU.w.H#u.B.BaXaXaX.B.Q#vaAaMataaaua0a1aOaOaO.#.#QtQt",
"QtQtQtQtQt.#.#.##u.o.0.x.B.BaX.B.QaMataaauaDaTa2a1aO.#.#QtQtQtQt",
"QtQtQtQt.#a3a3.B.#.#.xaQ.I.Q.B.B.Qaaa4ajaTaEaOa2.#.#QtQtQtQtQtQt",
"QtQtQtQt.#.I.Ia3a3.B.#.#.Qa5a6.Q.QajaNaqaOaO.#.##4#4.#QtQtQtQtQt",
"QtQtQtQt.#.##0.I.Ia3a3.B.#.#.Q.Q.QaOaOaO.#.##4#0#0#4.#QtQtQtQtQt",
"QtQtQtQtQtQt.#.##0.I.Ia3a3.B.#.#.QaO.#.##4#0#0#2#4a7.#QtQtQtQtQt",
"QtQtQtQtQtQtQtQt.#.##0.I.Ia3a3.B.#.##4#0#0#2#4a7.#.#QtQtQtQtQtQt",
"QtQtQtQtQtQtQtQtQtQt.#.##0.I.Ia3.B#0#0#2#4a7.#.#QtQtQtQtQtQtQtQt",
"QtQtQtQtQtQtQtQtQtQtQtQt.#.##0.I.I#2#4a7.#.#QtQtQtQtQtQtQtQtQtQt",
"QtQtQtQtQtQtQtQtQtQtQtQtQtQt.#.##0a7.#.#QtQtQtQtQtQtQtQtQtQtQtQt",
"QtQtQtQtQtQtQtQtQtQtQtQtQtQtQtQt.#.#QtQtQtQtQtQtQtQtQtQtQtQtQtQt"};
