/* XPM */
static char *xconsole[]={
"32 32 9 1",
". c None",
"# c #000000",
"f c #008080",
"g c #00ff00",
"e c #585858",
"c c #808080",
"d c #a0a0a0",
"b c #c3c3c3",
"a c #ffffff",
".#####################..........",
"#aaaaaaaaaaaaaaaaaaaaa#.........",
"#abbbbbbbbbbbbbbbbbbbc#.........",
"#abcccccccccccccccccbc#.........",
"#abcaaaaaaaaaaaaaaabbc#.........",
"#abca#aaaaaaaaaaaaabbc#.........",
"#abcaa#aaaaaaaaaaaabbc#.........",
"#abca#aa##aaaaaaaaabbc#.........",
"#abcaaaaaaaaaaaaaaabbc#.........",
"#abcaaaaaaaaaaaaaaabbc#.........",
"#abcaaaaaaaaaaaaaaabbc#########.",
"#abcaaaaaaaaaaaaaaabbc#dddddddb#",
"#abcaaaaaaaaaaaaaaabbc#ddddddbc#",
"#abcaaaaaaaaaaaaaaabbc#dddddbcc#",
"#abbbbbbbbbbbbbbbbbbbc#aaaabccc#",
"#abbbbbbbbbbbbbbbbbbbc#bbbbcccc#",
"#ccccccccccccccccccccc#eeebcccc#",
".#####################fffabcccc#",
"...##.......#beffffffffffabcccc#",
"..##........#beffffffffffabcccc#",
"..###.......#beffffffffffabcccc#",
"...##.......#beffffffffffabcccc#",
"..##...####.#beffffffffffabccc#.",
"..#####aa##.#baaaaaaaaaaaabccee#",
"...####bb#..#bbbbbbbbbbbbbbcecb#",
"......#cc##..#eeeeeeeeeeeeeecbc#",
".......####..#ccccccccccccccbcc#",
"............#aaaaaaaaaaaaaabccc#",
"............#bbbbbbbbbbbbbbccc#.",
"............#baaggbbb#####bcc#..",
"............#bbbbbbbbbbbbbbc#...",
".............###############...."};
