/* XPM */
static char *xeyes[]={
"32 28 4 1",
". c None",
"# c #000000",
"b c #808080",
"a c #ffffff",
"................................",
"................................",
"................................",
"................................",
".....######........######.......",
"...##########....##########.....",
"..###..aa..###..###..aa..###....",
".##..aaaaaa..####..aaaaaa..##...",
".##.aaaaaaaa.####.aaaaaaaa.##...",
"##.aaaaaaaaaa.##.aaaaaaaaaa.##..",
"##.aaaaaaaaaa.##.aaaaaaaaaa.##b.",
"##aaaaaaaaaaaa##aaaaaaaaaaaa##b.",
"##aaaaaaaaaaaa##aaaaaaaaaaaa##bb",
"##aaaaaaaaaaaa##aaaaaaaaaaaa##bb",
"##aa.##.aaaaaa##aa.##.aaaaaa##bb",
"##.a####aaaaa.##.a####aaaaa.##bb",
"##.a####aaaaa.##.a####aaaaa.##bb",
".##..##.aaaa.####..##.aaaa.##bbb",
".##..aaaaaa..####..aaaaaa..##bbb",
"..###..aa..###bb###..aa..###bbb.",
"...##########bbb.##########bbbb.",
".....######bbbb....######bbbbb..",
"......bbbbbbbb......bbbbbbbbb...",
".......bbbbb..........bbbbb.....",
"................................",
"................................",
"................................",
"................................"};
